<?xml version="1.0" encoding="UTF-8"?>
<svg width="13px" height="10px" viewBox="0 0 13 10" version="1.1" xmlns="http://www.w3.org/2000/svg" xmlns:xlink="http://www.w3.org/1999/xlink">
    <title>ॐ</title>
    <g id="Page-2" stroke="none" stroke-width="1" fill="none" fill-rule="evenodd">
        <g id="Artboard" transform="translate(-39.000000, -60.000000)" fill="#000000" fill-rule="nonzero">
            <path d="M46.272,61.284 C46.644,61.284 46.92,61.008 46.92,60.672 C46.92,60.276 46.644,60 46.272,60 C45.912,60 45.624,60.276 45.624,60.672 C45.624,61.008 45.912,61.284 46.272,61.284 Z M46.236,63.396 C47.544,63.396 48.384,62.7 48.768,61.908 L48.06,61.56 C47.76,62.124 47.112,62.58 46.236,62.58 C45.36,62.58 44.748,62.112 44.436,61.548 L43.716,61.908 C44.1,62.7 44.928,63.396 46.236,63.396 Z M41.34,69.708 C42.636,69.708 43.356,68.952 43.512,68.208 C43.74,68.616 44.244,69.168 45.096,69.168 C45.948,69.168 46.536,68.64 47.016,67.98 C47.352,68.688 48,69.36 49.152,69.36 C50.556,69.36 51.348,67.884 51.348,66.6 C51.348,65.04 50.46,64.188 49.284,64.188 C48.06,64.188 47.496,65.496 46.836,66.672 C46.308,67.584 45.84,68.34 45.024,68.34 C44.16,68.34 43.92,67.656 43.596,67.02 C43.332,66.516 43.008,66.096 42.444,65.952 L42.444,65.904 C42.852,65.676 43.308,65.196 43.308,64.38 C43.308,63.3 42.492,62.556 41.352,62.556 C40.524,62.556 39.912,62.916 39.564,63.348 L40.176,63.924 C40.404,63.648 40.728,63.372 41.304,63.372 C41.988,63.372 42.396,63.804 42.396,64.416 C42.396,65.28 41.784,65.652 40.608,65.748 L40.752,66.576 L41.232,66.516 C41.304,66.504 41.436,66.492 41.508,66.492 C42.312,66.492 42.744,66.996 42.744,67.596 C42.744,68.244 42.312,68.856 41.376,68.856 C40.452,68.856 39.96,68.256 39.72,67.872 L39,68.448 C39.36,68.988 40.116,69.708 41.34,69.708 Z M49.032,68.544 C48.288,68.544 47.76,67.956 47.496,67.224 L47.592,67.056 C48.216,65.976 48.648,65.028 49.344,65.028 C49.956,65.028 50.448,65.58 50.448,66.468 C50.448,67.716 49.812,68.544 49.032,68.544 Z" id="ॐ"></path>
        </g>
    </g>
</svg>